
<svg version="1.0" xmlns="http://www.w3.org/2000/svg"
 width="512.000000pt" height="512.000000pt" viewBox="0 0 512.000000 512.000000"
 preserveAspectRatio="xMidYMid meet">

<g transform="translate(0.000000,512.000000) scale(0.100000,-0.100000)"
fill="#000000" stroke="none">
<path d="M2420 4873 c-330 -35 -619 -170 -861 -400 l-76 -73 -357 0 -357 0
-24 -25 -25 -24 0 -357 0 -357 -72 -76 c-303 -317 -448 -743 -398 -1161 39
-321 174 -606 401 -845 l69 -72 0 -354 c1 -263 4 -358 13 -370 28 -37 49 -39
403 -39 l347 0 72 -69 c250 -237 543 -371 882 -403 408 -39 817 108 1128 403
l72 69 346 0 c366 0 386 2 406 47 7 16 11 138 11 370 l0 346 69 72 c226 238
362 525 401 845 52 428 -114 890 -429 1195 l-41 39 0 358 0 359 -25 24 -24 25
-357 0 -357 0 -76 73 c-233 222 -497 350 -811 392 -97 14 -246 17 -330 8z
m329 -169 c268 -39 500 -156 710 -359 l109 -105 336 0 336 0 0 -336 0 -336
105 -109 c150 -155 245 -306 305 -487 103 -311 89 -632 -41 -929 -58 -132
-144 -257 -265 -383 l-104 -109 0 -336 0 -335 -336 0 -336 0 -106 -103 c-59
-57 -149 -130 -200 -164 -428 -282 -983 -281 -1409 3 -47 31 -133 103 -193
160 l-109 104 -336 0 -335 0 0 335 0 336 -104 109 c-121 126 -207 251 -265
383 -130 297 -144 618 -41 929 60 181 155 332 305 487 l105 109 0 336 0 336
336 0 336 0 106 103 c59 56 146 128 193 160 269 178 580 248 898 201z"/>
<path d="M2405 4469 c-148 -21 -343 -104 -467 -199 -59 -44 -161 -145 -235
-232 l-32 -38 -251 0 -251 0 -24 -25 -25 -24 0 -251 0 -251 -37 -32 c-159
-135 -250 -241 -319 -371 -89 -167 -120 -297 -118 -501 1 -116 6 -157 28 -240
28 -108 83 -232 143 -323 45 -68 158 -188 242 -257 l61 -50 0 -250 c1 -181 4
-254 13 -266 27 -36 52 -39 300 -39 l245 0 16 -25 c36 -55 201 -216 270 -264
103 -71 222 -126 341 -158 88 -23 119 -26 255 -26 135 0 168 3 252 26 119 31
243 89 343 158 69 47 216 190 267 260 l22 29 242 0 c258 0 283 4 303 47 7 15
11 110 11 267 l0 242 29 22 c70 51 212 198 260 266 71 103 126 222 158 341 23
88 26 119 26 255 0 135 -3 168 -26 255 -32 119 -106 275 -175 365 -46 61 -147
162 -234 237 l-38 32 0 251 0 251 -25 24 -24 25 -251 0 -251 0 -32 38 c-75 88
-187 197 -247 242 -213 157 -497 227 -765 189z m285 -159 c142 -23 287 -84
402 -171 38 -28 109 -99 159 -157 136 -158 95 -142 360 -142 l229 0 0 -230 c0
-266 -16 -224 131 -348 237 -198 342 -413 344 -697 0 -157 -17 -237 -82 -375
-59 -126 -133 -221 -256 -326 -152 -130 -137 -90 -137 -355 l0 -229 -229 0
c-265 0 -225 15 -355 -137 -138 -161 -274 -252 -463 -309 -78 -24 -105 -27
-233 -27 -129 0 -155 3 -235 27 -183 55 -329 153 -463 311 -130 152 -86 135
-352 135 l-230 0 0 229 c0 267 16 226 -141 360 -133 112 -219 226 -271 356
-118 292 -76 616 113 867 28 38 99 109 157 159 158 136 142 95 142 360 l0 229
229 0 c264 0 225 -15 353 136 85 100 144 152 232 209 95 60 230 109 356 128
52 8 178 6 240 -3z"/>
<path d="M1874 3204 c-152 -103 -348 -250 -372 -280 -108 -131 -62 -343 91
-421 66 -33 150 -41 213 -19 26 9 49 16 50 16 1 0 4 -80 6 -177 3 -168 4 -181
30 -235 32 -69 97 -136 163 -169 42 -20 64 -24 145 -24 107 0 153 16 227 80
l40 34 27 -28 c15 -16 51 -42 79 -57 48 -27 61 -29 152 -29 89 0 105 3 150 27
68 36 128 101 162 173 l28 60 3 485 c2 266 1 499 -3 518 -3 18 -15 42 -26 53
-26 26 -83 25 -109 -1 -19 -19 -20 -34 -20 -497 0 -287 -5 -496 -11 -522 -22
-95 -91 -146 -190 -139 -43 3 -66 11 -93 32 -73 56 -71 33 -74 596 -3 500 -3
505 -24 527 -27 29 -77 30 -109 4 l-24 -19 -5 -514 c-4 -364 -8 -519 -17 -533
-14 -26 -62 -69 -90 -84 -27 -14 -103 -14 -140 0 -40 15 -73 48 -94 94 -17 37
-19 75 -19 531 0 482 0 492 -21 518 -27 35 -73 35 -125 0z m-16 -354 l-3 -140
-38 -37 c-34 -35 -42 -38 -91 -38 -44 0 -59 5 -80 24 -54 50 -57 127 -8 174
33 32 204 156 215 157 5 0 7 -63 5 -140z"/>
<path d="M3382 3207 l-22 -23 0 -625 0 -626 23 -21 c29 -27 77 -28 108 -3 l24
19 0 632 0 632 -24 19 c-32 26 -82 25 -109 -4z"/>
</g>
</svg>
