<svg width="129" height="129" viewBox="0 0 129 129" fill="none" xmlns="http://www.w3.org/2000/svg">
<path d="M64.5 127.433C95.9802 127.433 121.5 101.914 121.5 70.4334C121.5 38.9532 95.9802 13.4334 64.5 13.4334C33.0198 13.4334 7.5 38.9532 7.5 70.4334C7.5 101.914 33.0198 127.433 64.5 127.433Z" fill="#19699D"/>
<path d="M64.5 115.233C39.8 115.233 19.7 95.1434 19.7 70.4334C19.7 45.7334 39.79 25.6434 64.5 25.6434C89.2 25.6434 109.29 45.7434 109.29 70.4334C109.3 95.1434 89.2 115.233 64.5 115.233Z" fill="white"/>
<path d="M64.5 20.8634C37.16 20.8634 14.92 43.1134 14.92 70.4434C14.92 97.7834 37.16 120.023 64.5 120.023C91.84 120.023 114.08 97.7834 114.08 70.4434C114.08 43.1034 91.84 20.8634 64.5 20.8634ZM64.5 115.233C39.8 115.233 19.7 95.1434 19.7 70.4334C19.7 45.7334 39.79 25.6434 64.5 25.6434C89.2 25.6434 109.29 45.7434 109.29 70.4334C109.3 95.1434 89.2 115.233 64.5 115.233Z" fill="#BEE8F1"/>
<path d="M69.13 64.4634V43.9234H68.07V32.3634C68.07 30.8234 66.82 29.5734 65.28 29.5734H63.71C62.17 29.5734 60.92 30.8234 60.92 32.3634V43.9234H59.86V64.4634C57.69 66.1434 56.43 68.9434 57.07 72.0234C57.68 74.9634 60.05 77.3234 63 77.8834C67.84 78.8034 72.08 75.1234 72.08 70.4334C72.09 67.9934 70.92 65.8534 69.13 64.4634ZM62.12 72.0234C62.07 71.9434 62.03 71.8534 61.99 71.7734C61.77 71.3734 61.64 70.9234 61.64 70.4334C61.64 69.9534 61.77 69.4934 61.99 69.0934C62.47 68.1934 63.41 67.5734 64.5 67.5734C65.59 67.5734 66.53 68.2034 67.01 69.1034C67.22 69.5034 67.36 69.9534 67.36 70.4334C67.36 70.9234 67.23 71.3734 67.01 71.7734C66.97 71.8634 66.93 71.9534 66.88 72.0234C66.57 72.4834 66.14 72.8434 65.63 73.0634C65.62 73.0734 65.6 73.0734 65.59 73.0834C65.26 73.2134 64.89 73.2934 64.51 73.2934C64.12 73.2934 63.76 73.2134 63.43 73.0834C63.42 73.0734 63.4 73.0734 63.39 73.0634C62.86 72.8434 62.43 72.4834 62.12 72.0234Z" fill="#2F2F2F"/>
<path d="M103.24 73.3034C104.82 73.3034 106.1 72.023 106.1 70.4434C106.1 68.8639 104.82 67.5834 103.24 67.5834C101.66 67.5834 100.38 68.8639 100.38 70.4434C100.38 72.023 101.66 73.3034 103.24 73.3034Z" fill="#2F2F2F"/>
<path d="M99.48 53.5434C100.136 53.1626 100.615 52.5376 100.812 51.805C101.008 51.0724 100.907 50.2917 100.53 49.6334C100.149 48.9799 99.5263 48.5029 98.796 48.3063C98.0657 48.1097 97.2873 48.2093 96.63 48.5834C95.9739 48.9643 95.4952 49.5892 95.2985 50.3219C95.1018 51.0545 95.203 51.8352 95.58 52.4934C95.7666 52.819 96.0156 53.1046 96.3128 53.3337C96.61 53.5628 96.9495 53.731 97.3119 53.8285C97.6743 53.9261 98.0523 53.9511 98.4244 53.9022C98.7964 53.8533 99.1552 53.7314 99.48 53.5434ZM85.3 34.4134C84.9753 34.2253 84.6165 34.1031 84.2444 34.0541C83.8723 34.005 83.4941 34.03 83.1317 34.1275C82.7692 34.2251 82.4297 34.3934 82.1325 34.6226C81.8353 34.8519 81.5864 35.1376 81.4 35.4634C81.2125 35.7884 81.0909 36.1471 81.0422 36.5191C80.9935 36.891 81.0186 37.269 81.1161 37.6312C81.2136 37.9935 81.3817 38.3329 81.6105 38.6302C81.8394 38.9274 82.1247 39.1766 82.45 39.3634C83.82 40.1534 85.57 39.6834 86.35 38.3134C86.5379 37.9886 86.6598 37.6299 86.7088 37.2578C86.7577 36.8858 86.7327 36.5077 86.6351 36.1453C86.5375 35.783 86.3694 35.4435 86.1403 35.1462C85.9111 34.849 85.6256 34.6 85.3 34.4134ZM43.7 34.4034C43.0448 34.7825 42.5665 35.4057 42.3697 36.1366C42.1729 36.8675 42.2737 37.6467 42.65 38.3034C42.8366 38.629 43.0856 38.9146 43.3828 39.1437C43.68 39.3728 44.0195 39.541 44.3819 39.6385C44.7443 39.7361 45.1223 39.7611 45.4944 39.7122C45.8664 39.6633 46.2252 39.5414 46.55 39.3534C46.8751 39.1663 47.1599 38.9168 47.3883 38.6193C47.6166 38.3217 47.7839 37.982 47.8806 37.6196C47.9772 37.2572 48.0013 36.8793 47.9514 36.5075C47.9016 36.1358 47.7787 35.7776 47.59 35.4534C47.2125 34.7994 46.5911 34.3216 45.8619 34.1248C45.1328 33.9279 44.3554 34.0282 43.7 34.4034Z" fill="#2F2F2F"/>
<path d="M33.4246 52.491C34.2142 51.123 33.7453 49.3739 32.3773 48.5843C31.0093 47.7947 29.2602 48.2636 28.4706 49.6316C27.681 50.9996 28.1499 52.7487 29.5179 53.5383C30.8859 54.3279 32.635 53.859 33.4246 52.491Z" fill="#2F2F2F"/>
<path d="M25.76 73.2934C27.3395 73.2934 28.62 72.013 28.62 70.4334C28.62 68.8539 27.3395 67.5734 25.76 67.5734C24.1805 67.5734 22.9 68.8539 22.9 70.4334C22.9 72.013 24.1805 73.2934 25.76 73.2934Z" fill="#2F2F2F"/>
<path d="M29.52 87.3334C28.8664 87.714 28.3895 88.3372 28.1929 89.0675C27.9963 89.7978 28.0958 90.5762 28.47 91.2334C28.6569 91.5587 28.906 91.844 29.2033 92.0729C29.5005 92.3018 29.84 92.4698 30.2022 92.5673C30.5645 92.6649 30.9424 92.69 31.3144 92.6413C31.6864 92.5926 32.0451 92.471 32.37 92.2834C32.6958 92.0971 32.9815 91.8481 33.2108 91.5509C33.4401 91.2538 33.6083 90.9142 33.7059 90.5518C33.8035 90.1893 33.8284 89.8112 33.7794 89.4391C33.7303 89.0669 33.6082 88.7082 33.42 88.3834C33.0413 87.7279 32.4181 87.2492 31.687 87.0524C30.956 86.8555 30.1767 86.9566 29.52 87.3334Z" fill="#2F2F2F"/>
<path d="M47.6091 105.421C48.3987 104.053 47.9298 102.304 46.5618 101.514C45.1938 100.724 43.4447 101.193 42.6551 102.561C41.8655 103.929 42.3344 105.678 43.7024 106.468C45.0704 107.258 46.8195 106.789 47.6091 105.421Z" fill="#2F2F2F"/>
<path d="M64.5 112.043C66.0795 112.043 67.36 110.763 67.36 109.183C67.36 107.604 66.0795 106.323 64.5 106.323C62.9205 106.323 61.64 107.604 61.64 109.183C61.64 110.763 62.9205 112.043 64.5 112.043Z" fill="#2F2F2F"/>
<path d="M85.3031 106.47C86.6712 105.68 87.1401 103.931 86.3506 102.563C85.561 101.195 83.8119 100.726 82.4439 101.515C81.0759 102.305 80.6069 104.054 81.3964 105.422C82.186 106.79 83.9351 107.259 85.3031 106.47Z" fill="#2F2F2F"/>
<path d="M100.526 91.2401C101.314 89.8773 100.843 88.1318 99.4759 87.3415C98.1083 86.5511 96.3612 87.0151 95.5736 88.3779C94.7859 89.7406 95.2561 91.4861 96.6236 92.2765C97.9912 93.0669 99.7383 92.6029 100.526 91.2401Z" fill="#2F2F2F"/>
</svg>
