<svg xmlns="http://www.w3.org/2000/svg" xmlns:xlink="http://www.w3.org/1999/xlink" width="2100" height="2100" viewBox="0 0 2100 2100">
<path fill-rule="evenodd" fill="rgb(0%, 0%, 0%)" fill-opacity="1" d="M 740.574219 408.730469 L 759.476562 408.730469 C 776.15625 408.730469 795.039062 419.019531 815.597656 439.859375 C 834.503906 433.730469 850.332031 430.679688 862.839844 430.679688 C 921.480469 436.230469 950.640625 465.691406 950.640625 518.761719 C 992.328125 542.671875 1013.460938 581.28125 1013.460938 634.371094 L 1006.78125 671.878906 C 1020.960938 683.820312 1029.289062 695.21875 1032.070312 706.050781 L 1037.890625 706.050781 C 1040.398438 695.21875 1049.019531 683.820312 1062.898438 671.878906 C 1060.96875 652.699219 1058.75 641.300781 1056.519531 637.699219 C 1056.519531 583.78125 1077.359375 543.21875 1119.320312 515.429688 C 1119.320312 476.820312 1139.050781 449.859375 1178.511719 434.03125 C 1192.671875 431.800781 1204.351562 430.679688 1213.519531 430.679688 C 1217.949219 430.679688 1232.679688 433.730469 1257.691406 439.859375 C 1272.699219 419.019531 1290.480469 408.730469 1310.480469 408.730469 L 1329.109375 408.730469 C 1380.230469 408.730469 1456.378906 494.320312 1558.058594 665.210938 C 1595.300781 723.28125 1615.308594 752.738281 1617.53125 753.289062 C 1636.988281 711.320312 1667 690.488281 1707.839844 690.488281 L 1714.238281 690.488281 C 1752.300781 690.488281 1774.261719 724.949219 1780.089844 793.871094 C 1780.089844 856.390625 1798.988281 1025.320312 1836.5 1300.964844 L 1836.5 1307.640625 C 1836.5 1367.9375 1778.160156 1480.472656 1661.441406 1645.527344 C 1653.121094 1641.648438 1640.320312 1633.300781 1623.109375 1620.242188 C 1733.691406 1455.1875 1789.261719 1349.878906 1789.261719 1304.3125 C 1749.519531 1022.550781 1729.789062 843.039062 1729.789062 765.519531 C 1723.691406 746.910156 1715.339844 737.730469 1704.511719 737.730469 C 1653.941406 737.730469 1621.710938 845.269531 1607.53125 1060.058594 L 1607.53125 1153.691406 C 1607.53125 1164.542969 1608.648438 1180.375 1610.878906 1200.933594 C 1608.648438 1200.933594 1607.53125 1202.054688 1607.53125 1204.28125 L 1592.25 1200.933594 L 1588.921875 1200.933594 C 1543.910156 1200.933594 1496.941406 1221.785156 1448.03125 1263.730469 L 1444.699219 1263.730469 C 1494.171875 1211.507812 1542.230469 1185.378906 1588.921875 1185.378906 L 1592.25 1185.378906 C 1585.570312 1110.078125 1582.519531 1055.890625 1582.519531 1022.550781 C 1582.519531 956.980469 1588.921875 891.109375 1601.980469 824.710938 C 1455.828125 579.078125 1363 455.96875 1322.710938 455.96875 L 1319.378906 455.96875 C 1301.050781 455.96875 1291.878906 465.421875 1291.878906 483.75 C 1291.878906 578.230469 1350.21875 713.828125 1466.660156 890.828125 L 1466.660156 893.898438 C 1341.890625 743.28125 1271.039062 623.238281 1254.359375 534.339844 C 1254.359375 496.828125 1238.53125 477.921875 1207.121094 477.921875 C 1191.839844 477.921875 1179.339844 485.421875 1169.609375 499.878906 L 1169.609375 505.710938 C 1169.609375 549.070312 1214.351562 676.308594 1304.101562 887.5 C 1214.351562 737.179688 1169.609375 648.800781 1169.609375 622.140625 C 1154.050781 582.398438 1144.328125 561.570312 1141.269531 559.351562 C 1118.488281 576.851562 1107.089844 596.578125 1107.089844 618.789062 L 1107.089844 631.019531 C 1107.089844 674.929688 1141.550781 778.289062 1210.449219 941.121094 L 1203.789062 941.121094 C 1147.378906 836.378906 1110.988281 759.140625 1094.859375 709.121094 C 1075.699219 725.5 1066.25 749.679688 1066.25 781.640625 L 1066.25 793.871094 C 1066.25 861.671875 1107.089844 972.53125 1188.511719 1125.910156 L 1188.511719 1160.09375 C 1188.511719 1171.199219 1168.511719 1217.886719 1129.050781 1300.964844 C 1124.601562 1321.269531 1122.371094 1336.824219 1122.371094 1348.207031 L 1122.371094 1363.78125 C 1122.371094 1433.804688 1154.050781 1522.4375 1216.851562 1629.972656 C 1212.949219 1633.871094 1200.449219 1642.199219 1178.511719 1655.253906 C 1129.871094 1579.679688 1099.589844 1510.757812 1088.210938 1448.515625 C 1082.359375 1440.183594 1077.078125 1409.898438 1072.910156 1357.382812 C 1072.910156 1311.539062 1094.589844 1248.171875 1137.929688 1166.769531 L 1141.269531 1148.140625 C 1141.269531 1138.6875 1116.269531 1084.519531 1066.25 985.308594 C 1055.398438 958.628906 1045.96875 930.289062 1037.890625 900.558594 L 1032.070312 900.558594 C 1032.070312 923.339844 997.605469 1002.539062 928.703125 1138.136719 L 928.703125 1148.140625 C 928.703125 1157.316406 946.210938 1199.828125 981.496094 1275.957031 C 989.828125 1296.535156 994.828125 1323.472656 997.054688 1357.382812 C 997.054688 1436.582031 962.59375 1535.765625 893.695312 1655.253906 L 891.191406 1655.253906 C 889.519531 1655.253906 876.738281 1646.648438 853.109375 1629.972656 C 915.925781 1522.988281 947.3125 1434.355469 947.3125 1363.78125 L 947.3125 1348.207031 C 947.3125 1314.59375 926.480469 1258.175781 884.792969 1178.996094 L 881.464844 1160.09375 L 881.464844 1138.136719 C 881.464844 1127.859375 906.472656 1071.460938 956.488281 968.929688 C 987.878906 897.78125 1003.730469 839.441406 1003.730469 793.871094 L 1003.730469 781.640625 C 1003.730469 749.679688 994.003906 725.5 975.097656 709.121094 C 975.097656 730.5 936.484375 808.878906 859.507812 944.46875 L 859.507812 938.070312 C 928.429688 779.421875 962.871094 677.160156 962.871094 631.019531 L 962.871094 618.789062 C 962.871094 593.789062 950.367188 574.070312 925.359375 559.351562 C 913.976562 611.589844 865.0625 715.769531 778.085938 871.949219 C 772.257812 882.230469 768.082031 887.5 765.878906 887.5 L 765.878906 881.949219 C 855.335938 695.769531 900.074219 573.5 900.074219 515.429688 L 900.074219 509.050781 C 900.074219 492.648438 888.691406 482.371094 865.910156 477.921875 C 832.277344 477.921875 815.597656 496.828125 815.597656 534.339844 C 798.664062 623.238281 727.792969 743.28125 603.027344 893.898438 L 603.027344 890.828125 C 717.515625 707.449219 774.757812 574.898438 774.757812 493.480469 L 774.757812 480.421875 C 774.757812 464.308594 766.703125 455.96875 750.300781 455.96875 L 747.246094 455.96875 C 705.855469 455.96875 616.101562 574.898438 477.710938 812.480469 C 476.058594 812.480469 472.710938 815.808594 467.984375 822.480469 C 481.058594 890.828125 487.4375 959.480469 487.4375 1028.378906 C 487.4375 1058.109375 484.109375 1110.628906 477.710938 1185.378906 L 481.058594 1185.378906 C 527.726562 1185.378906 575.519531 1211.507812 624.984375 1263.730469 L 621.933594 1263.730469 C 574.140625 1221.785156 527.175781 1200.933594 481.058594 1200.933594 L 477.710938 1200.933594 L 462.15625 1204.28125 C 462.15625 1202.054688 461.050781 1200.933594 459.101562 1200.933594 C 461.050781 1180.375 462.15625 1164.542969 462.15625 1153.691406 L 462.15625 1100.902344 C 451.324219 881.679688 427.144531 764.691406 389.90625 749.960938 C 389.90625 744.960938 380.453125 741.058594 362.121094 737.730469 C 343.21875 737.730469 332.386719 791.921875 330.4375 900.558594 C 330.4375 929.191406 313.78125 1065.058594 280.699219 1307.640625 C 280.699219 1350.980469 336.011719 1455.1875 446.875 1620.242188 C 424.917969 1636.921875 411.589844 1645.527344 406.035156 1645.527344 C 290.996094 1476.59375 233.476562 1365.160156 233.476562 1310.691406 L 233.476562 1300.964844 C 264.867188 1076.460938 284.871094 898.910156 292.925781 768.570312 C 292.925781 727.449219 313.78125 701.320312 355.445312 690.488281 L 367.675781 690.488281 C 399.359375 690.488281 428.542969 711.320312 455.753906 753.289062 C 523.003906 638.800781 591.921875 538.488281 662.496094 452.910156 C 691.679688 423.449219 717.789062 408.730469 740.574219 408.730469 "/>
</svg>
