<svg width="21" height="14" viewBox="0 0 21 14" fill="none" xmlns="http://www.w3.org/2000/svg">
<path d="M10.5 2.18136C11.5533 2.18121 12.5881 2.45834 13.5003 2.98489C14.4125 3.51144 15.1701 4.26885 15.6968 5.18099C16.2235 6.09313 16.5008 7.12786 16.5008 8.18115C16.5009 9.23444 16.2236 10.2692 15.697 11.1814H18.5C18.7652 11.1814 19.0196 11.2867 19.2071 11.4743C19.3946 11.6618 19.5 11.9161 19.5 12.1814C19.5 12.4466 19.3946 12.7009 19.2071 12.8885C19.0196 13.076 18.7652 13.1814 18.5 13.1814H2.49999C2.23477 13.1814 1.98042 13.076 1.79288 12.8885C1.60535 12.7009 1.49999 12.4466 1.49999 12.1814C1.49999 11.9161 1.60535 11.6618 1.79288 11.4743C1.98042 11.2867 2.23477 11.1814 2.49999 11.1814H5.30299C4.77634 10.2692 4.49911 9.23444 4.49914 8.18115C4.49918 7.12786 4.77649 6.09313 5.3032 5.18099C5.82991 4.26885 6.58746 3.51144 7.49969 2.98489C8.41193 2.45834 9.4467 2.18121 10.5 2.18136ZM10.5 4.18136C9.70635 4.1813 8.93064 4.41733 8.27153 4.85942C7.61243 5.30151 7.09973 5.92967 6.79867 6.66399C6.49761 7.39831 6.42179 8.20559 6.58087 8.98312C6.73995 9.76065 7.12672 10.4733 7.69199 11.0304L7.85499 11.1804H13.145C13.7539 10.6429 14.1848 9.93283 14.3804 9.14453C14.576 8.35623 14.5269 7.52707 14.2398 6.76732C13.9527 6.00757 13.4411 5.35322 12.7731 4.89129C12.105 4.42936 11.3122 4.18174 10.5 4.18136ZM19.5 7.18136C19.7549 7.18164 20 7.27924 20.1854 7.45421C20.3707 7.62918 20.4822 7.86831 20.4972 8.12275C20.5121 8.3772 20.4293 8.62774 20.2657 8.82319C20.1021 9.01864 19.8701 9.14426 19.617 9.17436L19.5 9.18136H18.5C18.2451 9.18108 18 9.08348 17.8146 8.90851C17.6293 8.73354 17.5178 8.49441 17.5028 8.23996C17.4879 7.98552 17.5707 7.73498 17.7343 7.53953C17.8978 7.34407 18.1299 7.21846 18.383 7.18836L18.5 7.18136H19.5ZM2.49999 7.18136C2.75487 7.18164 3.00002 7.27924 3.18536 7.45421C3.3707 7.62918 3.48223 7.86831 3.49716 8.12275C3.5121 8.3772 3.42932 8.62774 3.26573 8.82319C3.10214 9.01864 2.87009 9.14426 2.61699 9.17436L2.49999 9.18136H1.49999C1.24511 9.18108 0.999959 9.08348 0.814622 8.90851C0.629286 8.73354 0.517756 8.49441 0.502819 8.23996C0.487882 7.98552 0.570665 7.73498 0.734256 7.53953C0.897846 7.34407 1.12989 7.21846 1.38299 7.18836L1.49999 7.18136H2.49999ZM4.84299 1.11036L5.54999 1.81736C5.73215 2.00596 5.83294 2.25856 5.83067 2.52076C5.82839 2.78296 5.72322 3.03377 5.53781 3.21918C5.3524 3.40459 5.10159 3.50976 4.83939 3.51203C4.5772 3.51431 4.32459 3.41352 4.13599 3.23136L3.42899 2.52436C3.24683 2.33576 3.14604 2.08315 3.14832 1.82096C3.15059 1.55876 3.25576 1.30795 3.44117 1.12254C3.62658 0.937132 3.87739 0.831964 4.13959 0.829685C4.40179 0.827407 4.65439 0.928201 4.84299 1.11036ZM16.157 1.11036C16.3369 0.931011 16.5784 0.826885 16.8324 0.819131C17.0863 0.811376 17.3337 0.900575 17.5243 1.06861C17.7148 1.23664 17.8343 1.47091 17.8584 1.72383C17.8825 1.97676 17.8094 2.22937 17.654 2.43036L17.571 2.52436L16.864 3.23136C16.684 3.41071 16.4426 3.51483 16.1886 3.52259C15.9347 3.53034 15.6873 3.44114 15.4967 3.27311C15.3061 3.10508 15.1867 2.87081 15.1626 2.61788C15.1385 2.36496 15.2116 2.11235 15.367 1.91136L15.45 1.81736L16.157 1.11036Z" fill="#005773" fill-opacity="0.56"/>
</svg>
