<svg width="20" height="18" viewBox="0 0 20 18" fill="none" xmlns="http://www.w3.org/2000/svg">
<path d="M11.155 1.025C11.2985 0.922372 11.4663 0.859175 11.6419 0.841719C11.8174 0.824263 11.9944 0.853159 12.1553 0.925522C12.3162 0.997886 12.4553 1.11118 12.5586 1.2541C12.662 1.39702 12.7261 1.56457 12.7445 1.74L12.75 1.8445V16.1555C12.7501 16.3319 12.7038 16.5052 12.616 16.6582C12.5281 16.8111 12.4016 16.9384 12.2492 17.0271C12.0967 17.1159 11.9237 17.1632 11.7473 17.1642C11.5709 17.1651 11.3973 17.1198 11.2439 17.0328L11.1559 16.9759L5.12333 12.6667H2.66667C2.20414 12.6668 1.75865 12.4921 1.4195 12.1776C1.08035 11.8631 0.872605 11.4321 0.837915 10.9708L0.833332 10.8333V7.16667C0.833417 6.7043 1.00821 6.25903 1.32268 5.92008C1.63716 5.58112 2.0681 5.37351 2.52917 5.33883L2.66667 5.33333H5.12333L11.155 1.025ZM15.1205 6.40767L16.4167 7.70384L17.7128 6.40767C17.7974 6.32012 17.8985 6.25028 18.0104 6.20224C18.1222 6.1542 18.2425 6.12891 18.3642 6.12786C18.4859 6.1268 18.6066 6.14999 18.7193 6.19608C18.8319 6.24217 18.9343 6.31024 19.0204 6.39631C19.1064 6.48237 19.1745 6.58472 19.2206 6.69738C19.2667 6.81003 19.2899 6.93074 19.2888 7.05245C19.2878 7.17417 19.2625 7.29445 19.2144 7.40629C19.1664 7.51813 19.0965 7.61928 19.009 7.70384L17.7128 9L19.009 10.2962C19.181 10.4681 19.2777 10.7012 19.2778 10.9444C19.2779 11.1875 19.1813 11.4208 19.0095 11.5928C18.8376 11.7648 18.6044 11.8615 18.3612 11.8616C18.1181 11.8616 17.8848 11.7651 17.7128 11.5933L16.4167 10.2962L15.1205 11.5933C14.9485 11.7651 14.7153 11.8616 14.4721 11.8616C14.2289 11.8615 13.9958 11.7648 13.8239 11.5928C13.652 11.4208 13.5555 11.1875 13.5556 10.9444C13.5556 10.7012 13.6523 10.4681 13.8243 10.2962L15.1205 9L13.8243 7.70384C13.7368 7.61928 13.6669 7.51813 13.6189 7.40629C13.5709 7.29445 13.5456 7.17417 13.5445 7.05245C13.5435 6.93074 13.5667 6.81003 13.6127 6.69738C13.6588 6.58472 13.7269 6.48237 13.813 6.39631C13.899 6.31024 14.0014 6.24217 14.114 6.19608C14.2267 6.14999 14.3474 6.1268 14.4691 6.12786C14.5908 6.12891 14.7111 6.1542 14.823 6.20224C14.9348 6.25028 15.0359 6.32012 15.1205 6.40767Z" fill="#1E1E1E" fill-opacity="0.35"/>
</svg>
