<svg width="20" height="18" viewBox="0 0 20 18" fill="none" xmlns="http://www.w3.org/2000/svg">
<path d="M11.375 1.73519C11.375 0.774062 10.1774 0.335437 9.55656 1.06831L6.74744 4.38894C6.61835 4.54127 6.45763 4.66366 6.27645 4.7476C6.09527 4.83154 5.89799 4.87502 5.69831 4.875H3.125C2.39565 4.875 1.69618 5.16473 1.18046 5.68045C0.664731 6.19618 0.375 6.89565 0.375 7.625V10.375C0.375 11.1043 0.664731 11.8038 1.18046 12.3195C1.69618 12.8353 2.39565 13.125 3.125 13.125H5.69831C5.89804 13.1251 6.09536 13.1686 6.27654 13.2527C6.45772 13.3368 6.61841 13.4593 6.74744 13.6117L9.55656 16.9317C10.1767 17.6646 11.375 17.2259 11.375 16.2648V1.73519ZM13.7352 4.3085C13.8096 4.25732 13.8934 4.22131 13.9817 4.20253C14.0701 4.18374 14.1613 4.18255 14.2501 4.19903C14.3389 4.2155 14.4236 4.24931 14.4993 4.29853C14.5751 4.34775 14.6404 4.41141 14.6915 4.48587C15.6987 5.95025 16.2301 7.45862 16.2301 9C16.2301 10.5414 15.6987 12.0497 14.6915 13.5148C14.6408 13.5902 14.5756 13.6548 14.4998 13.7048C14.4239 13.7549 14.3389 13.7894 14.2497 13.8064C14.1604 13.8234 14.0687 13.8226 13.9797 13.8039C13.8908 13.7852 13.8065 13.7491 13.7316 13.6976C13.6567 13.6461 13.5928 13.5803 13.5435 13.504C13.4942 13.4276 13.4605 13.3423 13.4444 13.2528C13.4283 13.1634 13.4301 13.0717 13.4497 12.9829C13.4693 12.8942 13.5063 12.8102 13.5585 12.7359C14.4419 11.4502 14.8558 10.2086 14.8558 9C14.8558 7.79137 14.4419 6.54975 13.5585 5.26481C13.4554 5.11455 13.4161 4.92948 13.4494 4.75028C13.4826 4.57108 13.5857 4.41243 13.7359 4.30919M16.6626 1.62794C16.5972 1.56564 16.5202 1.51683 16.436 1.48429C16.3517 1.45175 16.2619 1.43612 16.1717 1.43829C16.0814 1.44046 15.9924 1.46039 15.9099 1.49694C15.8273 1.53349 15.7527 1.58595 15.6904 1.65131C15.6281 1.71668 15.5793 1.79367 15.5468 1.8779C15.5143 1.96213 15.4986 2.05194 15.5008 2.14222C15.503 2.23249 15.5229 2.32144 15.5594 2.40401C15.596 2.48658 15.6484 2.56114 15.7138 2.62344C17.3549 4.18612 18.2081 6.569 18.2081 9.00069C18.2081 11.4331 17.3549 13.8152 15.7138 15.3779C15.6484 15.4402 15.596 15.5148 15.5594 15.5974C15.5229 15.6799 15.503 15.7689 15.5008 15.8592C15.4986 15.9494 15.5143 16.0392 15.5468 16.1235C15.5793 16.2077 15.6281 16.2847 15.6904 16.3501C15.7527 16.4154 15.8273 16.4679 15.9099 16.5044C15.9924 16.541 16.0814 16.5609 16.1717 16.5631C16.2619 16.5653 16.3517 16.5496 16.436 16.5171C16.5202 16.4845 16.5972 16.4357 16.6626 16.3734C18.6309 14.4986 19.5824 11.7252 19.5824 9.00069C19.5824 6.27612 18.6309 3.50206 16.6619 1.62725" fill="#01B7F1"/>
</svg>
